<svg width="281" height="71" viewBox="0 0 281 71" fill="none" xmlns="http://www.w3.org/2000/svg">
<path d="M150.466 48.444C147.827 48.444 145.434 47.8767 143.288 46.742C141.167 45.5827 139.489 43.9917 138.256 41.969C137.047 39.9217 136.443 37.6153 136.443 35.05C136.443 32.4847 137.047 30.1907 138.256 28.168C139.489 26.1207 141.167 24.5297 143.288 23.395C145.434 22.2357 147.839 21.656 150.503 21.656C152.748 21.656 154.77 22.0507 156.571 22.84C158.396 23.6293 159.926 24.764 161.159 26.244L157.311 29.796C155.56 27.7733 153.389 26.762 150.799 26.762C149.196 26.762 147.765 27.1197 146.507 27.835C145.249 28.5257 144.262 29.5 143.547 30.758C142.856 32.016 142.511 33.4467 142.511 35.05C142.511 36.6533 142.856 38.084 143.547 39.342C144.262 40.6 145.249 41.5867 146.507 42.302C147.765 42.9927 149.196 43.338 150.799 43.338C153.389 43.338 155.56 42.3143 157.311 40.267L161.159 43.819C159.926 45.3237 158.396 46.4707 156.571 47.26C154.746 48.0493 152.711 48.444 150.466 48.444ZM184.348 28.094V48H178.872V45.632C178.107 46.4953 177.195 47.1613 176.134 47.63C175.073 48.074 173.926 48.296 172.693 48.296C170.078 48.296 168.006 47.5437 166.477 46.039C164.948 44.5343 164.183 42.302 164.183 39.342V28.094H169.955V38.491C169.955 41.6977 171.299 43.301 173.988 43.301C175.369 43.301 176.479 42.857 177.318 41.969C178.157 41.0563 178.576 39.712 178.576 37.936V28.094H184.348ZM189.695 28.094H195.467V48H189.695V28.094ZM192.581 25.319C191.521 25.319 190.657 25.0107 189.991 24.394C189.325 23.7773 188.992 23.0127 188.992 22.1C188.992 21.1873 189.325 20.4227 189.991 19.806C190.657 19.1893 191.521 18.881 192.581 18.881C193.642 18.881 194.505 19.177 195.171 19.769C195.837 20.361 196.17 21.101 196.17 21.989C196.17 22.951 195.837 23.7527 195.171 24.394C194.505 25.0107 193.642 25.319 192.581 25.319ZM207.521 48.296C205.868 48.296 204.253 48.0987 202.674 47.704C201.095 47.2847 199.837 46.7667 198.9 46.15L200.824 42.006C201.712 42.5733 202.785 43.042 204.043 43.412C205.301 43.7573 206.534 43.93 207.743 43.93C210.185 43.93 211.406 43.3257 211.406 42.117C211.406 41.5497 211.073 41.1427 210.407 40.896C209.741 40.6493 208.717 40.4397 207.336 40.267C205.708 40.0203 204.364 39.7367 203.303 39.416C202.242 39.0953 201.317 38.528 200.528 37.714C199.763 36.9 199.381 35.7407 199.381 34.236C199.381 32.978 199.739 31.868 200.454 30.906C201.194 29.9193 202.255 29.1547 203.636 28.612C205.042 28.0693 206.695 27.798 208.594 27.798C210 27.798 211.394 27.9583 212.775 28.279C214.181 28.575 215.34 28.9943 216.253 29.537L214.329 33.644C212.578 32.6573 210.666 32.164 208.594 32.164C207.361 32.164 206.436 32.3367 205.819 32.682C205.202 33.0273 204.894 33.4713 204.894 34.014C204.894 34.6307 205.227 35.0623 205.893 35.309C206.559 35.5557 207.62 35.79 209.075 36.012C210.703 36.2833 212.035 36.5793 213.071 36.9C214.107 37.196 215.007 37.751 215.772 38.565C216.537 39.379 216.919 40.5137 216.919 41.969C216.919 43.2023 216.549 44.3 215.809 45.262C215.069 46.224 213.984 46.9763 212.553 47.519C211.147 48.037 209.47 48.296 207.521 48.296ZM220.48 28.094H226.252V48H220.48V28.094ZM223.366 25.319C222.306 25.319 221.442 25.0107 220.776 24.394C220.11 23.7773 219.777 23.0127 219.777 22.1C219.777 21.1873 220.11 20.4227 220.776 19.806C221.442 19.1893 222.306 18.881 223.366 18.881C224.427 18.881 225.29 19.177 225.956 19.769C226.622 20.361 226.955 21.101 226.955 21.989C226.955 22.951 226.622 23.7527 225.956 24.394C225.29 25.0107 224.427 25.319 223.366 25.319ZM243.708 27.798C246.175 27.798 248.161 28.538 249.665 30.018C251.195 31.498 251.959 33.6933 251.959 36.604V48H246.187V37.492C246.187 35.9133 245.842 34.7417 245.151 33.977C244.461 33.1877 243.462 32.793 242.154 32.793C240.699 32.793 239.54 33.2493 238.676 34.162C237.813 35.05 237.381 36.382 237.381 38.158V48H231.609V28.094H237.122V30.425C237.887 29.5863 238.837 28.945 239.971 28.501C241.106 28.0323 242.352 27.798 243.708 27.798ZM276.907 38.121C276.907 38.195 276.87 38.713 276.796 39.675H261.737C262.008 40.9083 262.65 41.8827 263.661 42.598C264.672 43.3133 265.93 43.671 267.435 43.671C268.471 43.671 269.384 43.523 270.173 43.227C270.987 42.9063 271.739 42.413 272.43 41.747L275.501 45.077C273.626 47.223 270.888 48.296 267.287 48.296C265.042 48.296 263.057 47.8643 261.33 47.001C259.603 46.113 258.271 44.892 257.334 43.338C256.397 41.784 255.928 40.0203 255.928 38.047C255.928 36.0983 256.384 34.347 257.297 32.793C258.234 31.2143 259.505 29.9933 261.108 29.13C262.736 28.242 264.549 27.798 266.547 27.798C268.496 27.798 270.259 28.2173 271.838 29.056C273.417 29.8947 274.65 31.1033 275.538 32.682C276.451 34.236 276.907 36.049 276.907 38.121ZM266.584 32.164C265.277 32.164 264.179 32.534 263.291 33.274C262.403 34.014 261.86 35.0253 261.663 36.308H271.468C271.271 35.05 270.728 34.051 269.84 33.311C268.952 32.5463 267.867 32.164 266.584 32.164Z" fill="black"/>
<rect x="2" y="2" width="120" height="67" fill="#DE1616" stroke="black" stroke-width="4"/>
<path d="M39.125 43.19V48H19.071V22.1H38.644V26.91H25.028V32.534H37.053V37.196H25.028V43.19H39.125ZM63.3967 28.094V48H57.9207V45.632C57.156 46.4953 56.2434 47.1613 55.1827 47.63C54.122 48.074 52.975 48.296 51.7417 48.296C49.127 48.296 47.055 47.5437 45.5257 46.039C43.9964 44.5343 43.2317 42.302 43.2317 39.342V28.094H49.0037V38.491C49.0037 41.6977 50.348 43.301 53.0367 43.301C54.418 43.301 55.528 42.857 56.3667 41.969C57.2054 41.0563 57.6247 39.712 57.6247 37.936V28.094H63.3967ZM74.2571 30.721C74.9477 29.759 75.8727 29.0313 77.0321 28.538C78.2161 28.0447 79.5727 27.798 81.1021 27.798V33.126C80.4607 33.0767 80.0291 33.052 79.8071 33.052C78.1544 33.052 76.8594 33.5207 75.9221 34.458C74.9847 35.3707 74.5161 36.752 74.5161 38.602V48H68.7441V28.094H74.2571V30.721ZM93.8255 48.296C91.7288 48.296 89.8418 47.8643 88.1645 47.001C86.5118 46.113 85.2168 44.892 84.2795 43.338C83.3421 41.784 82.8735 40.0203 82.8735 38.047C82.8735 36.0737 83.3421 34.31 84.2795 32.756C85.2168 31.202 86.5118 29.9933 88.1645 29.13C89.8418 28.242 91.7288 27.798 93.8255 27.798C95.9221 27.798 97.7968 28.242 99.4495 29.13C101.102 29.9933 102.397 31.202 103.334 32.756C104.272 34.31 104.74 36.0737 104.74 38.047C104.74 40.0203 104.272 41.784 103.334 43.338C102.397 44.892 101.102 46.113 99.4495 47.001C97.7968 47.8643 95.9221 48.296 93.8255 48.296ZM93.8255 43.56C95.3055 43.56 96.5141 43.0667 97.4515 42.08C98.4135 41.0687 98.8945 39.7243 98.8945 38.047C98.8945 36.3697 98.4135 35.0377 97.4515 34.051C96.5141 33.0397 95.3055 32.534 93.8255 32.534C92.3455 32.534 91.1245 33.0397 90.1625 34.051C89.2005 35.0377 88.7195 36.3697 88.7195 38.047C88.7195 39.7243 89.2005 41.0687 90.1625 42.08C91.1245 43.0667 92.3455 43.56 93.8255 43.56Z" fill="white"/>
</svg>
